<svg xmlns="http://www.w3.org/2000/svg" width="17.020618" height="28.228424" viewBox="0 0 4.5033716 7.4687699">
  <g id="layer1" transform="translate(0.01582028,2.4676375)" display = 'inline'>
    <path
      fill = '#ffff' fill-opacity = '1' stroke = 'none' stroke-width = '0.0133869'
      d="m 3.1003825,2.4610424 c 0,-0.2012128 0.0051,-0.402167 0.07875,-0.5888874 0.168379,-0.4268572 0.588108,-0.6941116 0.854906,-1.03414376 0.296893,-0.37838172 0.480867,-0.86305043 0.450186,-1.37885843 -0.06054,-1.01746821 -0.741477,-1.67043521 -1.571004,-1.86146311 -1.044059,-0.2404341 -2.28667795,0.175217 -2.74668335,1.3731174 -0.084071,0.21893691 -0.1378474,0.46616911 -0.1611046,0.70379231 -0.005230001,0.0533301 -0.037841,0.17409529 -0.010394,0.22119192 0.021213,0.0363964 0.089848,0.0337967 0.1233115,0.0392114 0.1040095,0.0168478 0.2082925,0.0348161 0.3119275,0.054436 0.274047,0.0518655 0.549454,0.0937768 0.82348795,0.14592922 0.183551,0.0349311 0.433754,0.0674635 0.607423,-0.0403319 0.05342,-0.03315 0.04771,-0.18661989 0.05698,-0.24807965 0.02575,-0.17064809 0.06373,-0.41075619 0.184573,-0.52873469 0.109325,-0.1067467 0.278215,0.062134 0.331766,0.169657 0.111845,0.2245387 -0.0016,0.44982409 -0.13479,0.61755646 -0.116399,0.14658987 -0.259761,0.26547336 -0.384669,0.40222447 -0.382685,0.41894316 -0.685155,0.82942636 -0.698905,1.46503696 -0.002,0.091795 -0.06092,0.3794159 0.0077,0.4450697 0.08853,0.084656 0.344181,0.072002 0.454129,0.072002 0.187968,0 0.374251,-0.00437 0.56147,-0.013803 0.285164,-0.014378 0.575893,-0.014923 0.86092,-0.014923 m -1.272664,2.4417282 c -0.05364,0.014865 -0.02513,-0.106643 0,0 0.02006,0.085216 -0.06079,-0.011013 3e-6,0 0.271314,0.049179 0.383951,0.1244947 0.656027,0.089302 0.0882,-0.011403 0.196295,0.00834 0.267277,-0.060575 0.08992,-0.087284 0.0461,0.00462 0,0 0.165359,-0.1368657 0.28474,-0.3130148 0.35929,-0.5314347 0.05737,-0.1681066 0.06856,-0.3383956 0.06475,-0.5170727 -0.01167,-0.546861 -0.411071,-0.8272144 -0.823302,-0.9221115 -0.165422,-0.038077 -0.328909,-0.086092 -0.499084,-0.066487 -0.33944,0.039082 -0.598839,0.3636882 -0.680277,0.7300624 -0.02915,0.1311782 -0.03844,0.2682597 -0.02182,0.402167 0.01926,0.1552221 0.05949,0.3007779 0.137809,0.4308934 0.132245,0.2196838 0.346501,0.3143506 0.539336,0.4452559 z"
      id="path2730" />
    <path
       style="opacity:0.839344;fill:#ffffff;fill-opacity:1;fill-rule:evenodd;stroke-width:0.189"
       id="path2768"
       d="m 6.5537888,12.190227 c 0.074987,0.160608 0.1249703,0.330809 0.1799209,0.498799 0.045859,0.127376 0.1077706,0.247998 0.165777,0.370065 0,0 0.2929729,-0.166637 0.2929729,-0.166637 v 0 C 7.1314887,12.773777 7.0673704,12.655844 7.0259655,12.528461 6.971859,12.357608 6.9170654,12.187127 6.8540863,12.019242 c 0,0 -0.3002975,0.170985 -0.3002975,0.170985 z" />
  </g>
</svg>
